{
  "asset": {
    "version": "2.0",
    "generator": "THREE.GLTFExporter"
  },
  "scenes": [
    {
      "nodes": [
        0
      ]
    }
  ],
  "scene": 0,
  "nodes": [
    {
      "children": [
        1,
        2,
        3,
        4,
        5,
        6
      ],
      "matrix": [
        0.01,
        0,
        0,
        0,
        0,
        0.01,
        0,
        0,
        0,
        0,
        0.01,
        0,
        0,
        0,
        0,
        1
      ]
    },
    {
      "matrix": [
        0.5883484054145521,
        0.39223227027636803,
        -0.7071067811865475,
        0,
        -0.554700196225229,
        0.8320502943378437,
        0,
        0,
        0.588348405414552,
        0.392232270276368,
        0.7071067811865476,
        0,
        0,
        0,
        0,
        1
      ],
      "name": "Directional Light",
      "extensions": {
        "KHR_lights_punctual": {
          "light": 0
        }
      }
    },
    {
      "matrix": [
        1,
        0,
        0,
        0,
        0,
        2.220446049250313e-16,
        -1,
        0,
        0,
        1,
        2.220446049250313e-16,
        0,
        -200,
        -200.00000000000009,
        400,
        1
      ],
      "name": "floor",
      "mesh": 0
    },
    {
      "matrix": [
        2.220446049250313e-16,
        0,
        1,
        0,
        0,
        1,
        0,
        0,
        -1,
        0,
        2.220446049250313e-16,
        0,
        200.00000000000006,
        0,
        401.07795138363144,
        1
      ],
      "name": "wall right",
      "mesh": 1
    },
    {
      "matrix": [
        1,
        0,
        0,
        0,
        0,
        1,
        0,
        0,
        0,
        0,
        1,
        0,
        -201.66097460692254,
        0,
        0,
        1
      ],
      "name": "wall left",
      "mesh": 2
    },
    {
      "matrix": [
        0.5957799319057606,
        3.1596113170273554e-8,
        0.8031477278423728,
        0,
        0.2549894023750679,
        0.9482624336563352,
        -0.18915274672224602,
        0,
        -0.7615948249658561,
        0.31748756970338765,
        0.5649557200958882,
        0,
        -644.2299128128016,
        314.0435025538957,
        713.679321245501,
        1
      ],
      "camera": 0
    },
    {
      "matrix": [
        1,
        0,
        0,
        0,
        0,
        1,
        0,
        0,
        0,
        0,
        1,
        0,
        0,
        1,
        0,
        1
      ],
      "name": "Default Ambient Light"
    }
  ],
  "extensions": {
    "KHR_lights_punctual": {
      "lights": [
        {
          "name": "Directional Light",
          "color": [
            1,
            1,
            1
          ],
          "intensity": 0.7,
          "type": "directional"
        }
      ]
    }
  },
  "bufferViews": [
    {
      "buffer": 0,
      "byteOffset": 0,
      "byteLength": 16320,
      "target": 34962,
      "byteStride": 12
    },
    {
      "buffer": 0,
      "byteOffset": 16320,
      "byteLength": 16320,
      "target": 34962,
      "byteStride": 12
    },
    {
      "buffer": 0,
      "byteOffset": 32640,
      "byteLength": 10880,
      "target": 34962,
      "byteStride": 8
    },
    {
      "buffer": 0,
      "byteOffset": 43520,
      "byteLength": 32016,
      "target": 34963
    },
    {
      "buffer": 0,
      "byteOffset": 75536,
      "byteLength": 16320,
      "target": 34962,
      "byteStride": 12
    },
    {
      "buffer": 0,
      "byteOffset": 91856,
      "byteLength": 16320,
      "target": 34962,
      "byteStride": 12
    },
    {
      "buffer": 0,
      "byteOffset": 108176,
      "byteLength": 10880,
      "target": 34962,
      "byteStride": 8
    },
    {
      "buffer": 0,
      "byteOffset": 119056,
      "byteLength": 32016,
      "target": 34963
    },
    {
      "buffer": 0,
      "byteOffset": 151072,
      "byteLength": 16320,
      "target": 34962,
      "byteStride": 12
    },
    {
      "buffer": 0,
      "byteOffset": 167392,
      "byteLength": 16320,
      "target": 34962,
      "byteStride": 12
    },
    {
      "buffer": 0,
      "byteOffset": 183712,
      "byteLength": 10880,
      "target": 34962,
      "byteStride": 8
    },
    {
      "buffer": 0,
      "byteOffset": 194592,
      "byteLength": 32016,
      "target": 34963
    }
  ],
  "buffers": [
    {
      "byteLength": 226608,
      "uri": "data:application/octet-stream;base64,"
    }
  ],
  "accessors": [
    {
      "bufferView": 0,
      "componentType": 5126,
      "count": 1360,
      "max": [
        400,
        400,
        20
      ],
      "min": [
        -400,
        -400,
        0
      ],
      "type": "VEC3"
    },
    {
      "bufferView": 1,
      "componentType": 5126,
      "count": 1360,
      "max": [
        1,
        1,
        1
      ],
      "min": [
        -1,
        -1,
        -1
      ],
      "type": "VEC3"
    },
    {
      "bufferView": 2,
      "componentType": 5126,
      "count": 1360,
      "max": [
        1,
        1
      ],
      "min": [
        0,
        0
      ],
      "type": "VEC2"
    },
    {
      "bufferView": 3,
      "componentType": 5125,
      "count": 8004,
      "max": [
        1359
      ],
      "min": [
        0
      ],
      "type": "SCALAR"
    },
    {
      "bufferView": 4,
      "componentType": 5126,
      "count": 1360,
      "max": [
        400,
        200,
        20
      ],
      "min": [
        -400,
        -200,
        0
      ],
      "type": "VEC3"
    },
    {
      "bufferView": 5,
      "componentType": 5126,
      "count": 1360,
      "max": [
        1,
        1,
        1
      ],
      "min": [
        -1,
        -1,
        -1
      ],
      "type": "VEC3"
    },
    {
      "bufferView": 6,
      "componentType": 5126,
      "count": 1360,
      "max": [
        1,
        1
      ],
      "min": [
        0,
        0
      ],
      "type": "VEC2"
    },
    {
      "bufferView": 7,
      "componentType": 5125,
      "count": 8004,
      "max": [
        1359
      ],
      "min": [
        0
      ],
      "type": "SCALAR"
    },
    {
      "bufferView": 8,
      "componentType": 5126,
      "count": 1360,
      "max": [
        400,
        200,
        20
      ],
      "min": [
        -400,
        -200,
        0
      ],
      "type": "VEC3"
    },
    {
      "bufferView": 9,
      "componentType": 5126,
      "count": 1360,
      "max": [
        1,
        1,
        1
      ],
      "min": [
        -1,
        -1,
        -1
      ],
      "type": "VEC3"
    },
    {
      "bufferView": 10,
      "componentType": 5126,
      "count": 1360,
      "max": [
        1,
        1
      ],
      "min": [
        0,
        0
      ],
      "type": "VEC2"
    },
    {
      "bufferView": 11,
      "componentType": 5125,
      "count": 8004,
      "max": [
        1359
      ],
      "min": [
        0
      ],
      "type": "SCALAR"
    }
  ],
  "meshes": [
    {
      "primitives": [
        {
          "mode": 4,
          "attributes": {
            "POSITION": 0,
            "NORMAL": 1,
            "TEXCOORD_0": 2
          },
          "extras": {
            "shape": {
              "points": [
                -400,
                400,
                -400,
                400,
                -400,
                400,
                4,
                400,
                400,
                400,
                400,
                400,
                400,
                4,
                400,
                -400,
                400,
                -400,
                400,
                -400,
                4,
                -400,
                -400,
                -400,
                -400,
                -400,
                -400,
                4
              ],
              "shapeHoles": [],
              "isClosed": true,
              "roundness": 4
            },
            "parameters": {
              "width": 800,
              "depth": 20,
              "cornerRadius": [
                4,
                4,
                4,
                4
              ],
              "cornerType": 0,
              "extrudeBevelSize": 4,
              "extrudeBevelSegments": 4,
              "height": 800,
              "type": "RectangleGeometry"
            },
            "ui": {
              "enabledIndieCorners": false
            },
            "type": "RectangleGeometry"
          },
          "indices": 3
        }
      ]
    },
    {
      "primitives": [
        {
          "mode": 4,
          "attributes": {
            "POSITION": 4,
            "NORMAL": 5,
            "TEXCOORD_0": 6
          },
          "extras": {
            "shape": {
              "points": [
                -400,
                200,
                -400,
                200,
                -400,
                200,
                4,
                400,
                200,
                400,
                200,
                400,
                200,
                4,
                400,
                -200,
                400,
                -200,
                400,
                -200,
                4,
                -400,
                -200,
                -400,
                -200,
                -400,
                -200,
                4
              ],
              "shapeHoles": [],
              "isClosed": true,
              "roundness": 4
            },
            "parameters": {
              "width": 800,
              "depth": 20,
              "cornerRadius": [
                4,
                4,
                4,
                4
              ],
              "cornerType": 0,
              "extrudeBevelSize": 4,
              "extrudeBevelSegments": 4,
              "height": 400,
              "type": "RectangleGeometry"
            },
            "ui": {
              "enabledIndieCorners": false
            },
            "type": "RectangleGeometry"
          },
          "indices": 7
        }
      ]
    },
    {
      "primitives": [
        {
          "mode": 4,
          "attributes": {
            "POSITION": 8,
            "NORMAL": 9,
            "TEXCOORD_0": 10
          },
          "extras": {
            "shape": {
              "points": [
                -400,
                200,
                -400,
                200,
                -400,
                200,
                4,
                400,
                200,
                400,
                200,
                400,
                200,
                4,
                400,
                -200,
                400,
                -200,
                400,
                -200,
                4,
                -400,
                -200,
                -400,
                -200,
                -400,
                -200,
                4
              ],
              "shapeHoles": [],
              "isClosed": true,
              "roundness": 4
            },
            "parameters": {
              "width": 800,
              "depth": 20,
              "cornerRadius": [
                4,
                4,
                4,
                4
              ],
              "cornerType": 0,
              "extrudeBevelSize": 4,
              "extrudeBevelSegments": 4,
              "height": 400,
              "type": "RectangleGeometry"
            },
            "ui": {
              "enabledIndieCorners": false
            },
            "type": "RectangleGeometry"
          },
          "indices": 11
        }
      ]
    }
  ],
  "cameras": [
    {
      "type": "orthographic",
      "orthographic": {
        "xmag": 11.786281566286325,
        "ymag": 5.948388977985129,
        "zfar": 100000,
        "znear": 0
      }
    }
  ],
  "extensionsUsed": [
    "KHR_lights_punctual"
  ]
}