{
  "asset": {
    "version": "2.0",
    "generator": "THREE.GLTFExporter"
  },
  "scenes": [
    {
      "name": "AuxScene",
      "nodes": [
        5
      ]
    }
  ],
  "scene": 0,
  "nodes": [
    {
      "name": "Extrude018",
      "mesh": 0
    },
    {
      "name": "Extrude018_1",
      "mesh": 1
    },
    {
      "name": "Extrude006",
      "extras": {
        "name": "Extrude.006"
      },
      "children": [
        0,
        1
      ]
    },
    {
      "matrix": [
        0.1,
        0,
        0,
        0,
        0,
        0.1,
        0,
        0,
        0,
        0,
        0.1,
        0,
        0,
        0,
        0,
        1
      ],
      "children": [
        2
      ]
    },
    {
      "matrix": [
        1.08660933504227,
        -0.08333157464008716,
        0.45372485448160665,
        0,
        0.3403261007154138,
        0.928628879427843,
        -0.6444818006521104,
        0,
        -0.3114298317088354,
        0.7240403958812989,
        0.8788101085907092,
        0,
        0,
        0,
        0,
        1
      ],
      "name": "Scene",
      "children": [
        3
      ]
    },
    {
      "children": [
        4
      ]
    }
  ],
  "bufferViews": [
    {
      "buffer": 0,
      "byteOffset": 0,
      "byteLength": 7680,
      "target": 34962,
      "byteStride": 12
    },
    {
      "buffer": 0,
      "byteOffset": 7680,
      "byteLength": 7680,
      "target": 34962,
      "byteStride": 12
    },
    {
      "buffer": 0,
      "byteOffset": 15360,
      "byteLength": 5120,
      "target": 34962,
      "byteStride": 8
    },
    {
      "buffer": 0,
      "byteOffset": 20480,
      "byteLength": 7632,
      "target": 34963
    },
    {
      "buffer": 0,
      "byteOffset": 28112,
      "byteLength": 7680,
      "target": 34962,
      "byteStride": 12
    },
    {
      "buffer": 0,
      "byteOffset": 35792,
      "byteLength": 7680,
      "target": 34962,
      "byteStride": 12
    },
    {
      "buffer": 0,
      "byteOffset": 43472,
      "byteLength": 5120,
      "target": 34962,
      "byteStride": 8
    },
    {
      "buffer": 0,
      "byteOffset": 48592,
      "byteLength": 7632,
      "target": 34963
    }
  ],
  "buffers": [
    {
      "byteLength": 56224,
      "uri": "data:application/octet-stream;base64,"
    }
  ],
  "accessors": [
    {
      "bufferView": 0,
      "componentType": 5126,
      "count": 640,
      "max": [
        8.965832710266113,
        9.204826354980469,
        1.9861376285552979
      ],
      "min": [
        -10.750712394714355,
        -9.193912506103516,
        0.36505573987960815
      ],
      "type": "VEC3"
    },
    {
      "bufferView": 1,
      "componentType": 5126,
      "count": 640,
      "max": [
        0.9600452780723572,
        0.9788865447044373,
        0.9999992847442627
      ],
      "min": [
        -0.9511231780052185,
        -0.9571123719215393,
        -0.9999992847442627
      ],
      "type": "VEC3"
    },
    {
      "bufferView": 2,
      "componentType": 5126,
      "count": 640,
      "max": [
        1,
        1
      ],
      "min": [
        0,
        0
      ],
      "type": "VEC2"
    },
    {
      "bufferView": 3,
      "componentType": 5125,
      "count": 1908,
      "max": [
        639
      ],
      "min": [
        0
      ],
      "type": "SCALAR"
    },
    {
      "bufferView": 4,
      "componentType": 5126,
      "count": 640,
      "max": [
        18.586687088012695,
        21.485273361206055,
        0.48214101791381836
      ],
      "min": [
        -19.054113388061523,
        -18.814638137817383,
        -2.833752393722534
      ],
      "type": "VEC3"
    },
    {
      "bufferView": 5,
      "componentType": 5126,
      "count": 640,
      "max": [
        0.9835559129714966,
        0.9496257901191711,
        0.9999996423721313
      ],
      "min": [
        -0.957527220249176,
        -0.9613436460494995,
        -0.9999996423721313
      ],
      "type": "VEC3"
    },
    {
      "bufferView": 6,
      "componentType": 5126,
      "count": 640,
      "max": [
        1,
        1
      ],
      "min": [
        0,
        0
      ],
      "type": "VEC2"
    },
    {
      "bufferView": 7,
      "componentType": 5125,
      "count": 1908,
      "max": [
        639
      ],
      "min": [
        0
      ],
      "type": "SCALAR"
    }
  ],
  "materials": [
    {
      "pbrMetallicRoughness": {
        "baseColorFactor": [
          1,
          0.4823529411764706,
          0,
          1
        ],
        "metallicFactor": 0.5,
        "roughnessFactor": 0.5
      },
      "doubleSided": true,
      "extensions": {
        "KHR_materials_clearcoat": {
          "clearcoatFactor": 0,
          "clearcoatRoughnessFactor": 0
        }
      }
    },
    {
      "pbrMetallicRoughness": {
        "baseColorFactor": [
          1,
          0.03137254901960784,
          0.03137254901960784,
          1
        ],
        "metallicFactor": 0.5,
        "roughnessFactor": 0.5
      },
      "doubleSided": true,
      "extensions": {
        "KHR_materials_clearcoat": {
          "clearcoatFactor": 0,
          "clearcoatRoughnessFactor": 0
        }
      }
    }
  ],
  "meshes": [
    {
      "primitives": [
        {
          "mode": 4,
          "attributes": {
            "POSITION": 0,
            "NORMAL": 1,
            "TEXCOORD_0": 2
          },
          "indices": 3,
          "material": 0
        }
      ]
    },
    {
      "primitives": [
        {
          "mode": 4,
          "attributes": {
            "POSITION": 4,
            "NORMAL": 5,
            "TEXCOORD_0": 6
          },
          "indices": 7,
          "material": 1
        }
      ]
    }
  ],
  "extensionsUsed": [
    "KHR_materials_clearcoat"
  ]
}