{
  "asset": {
    "version": "2.0",
    "generator": "THREE.GLTFExporter"
  },
  "scenes": [
    {
      "nodes": [
        0
      ]
    }
  ],
  "scene": 0,
  "nodes": [
    {
      "children": [
        1,
        12,
        13,
        14,
        15
      ],
      "matrix": [
        0.01,
        0,
        0,
        0,
        0,
        0.01,
        0,
        0,
        0,
        0,
        0.01,
        0,
        0,
        0,
        0,
        1
      ]
    },
    {
      "matrix": [
        1,
        0,
        0,
        0,
        0,
        1,
        0,
        0,
        0,
        0,
        1,
        0,
        27.5,
        45.5,
        65.5,
        1
      ],
      "name": "Cylinder",
      "mesh": 0
    },
    {
      "name": "Location",
      "mesh": 1
    },
    {
      "matrix": [
        0.1,
        0,
        0,
        0,
        0,
        0.1,
        0,
        0,
        0,
        0,
        0.1,
        0,
        0,
        0,
        0,
        1
      ],
      "children": [
        2
      ]
    },
    {
      "name": "Scene",
      "children": [
        3
      ]
    },
    {
      "name": "Location_1",
      "mesh": 2
    },
    {
      "matrix": [
        0.1,
        0,
        0,
        0,
        0,
        0.1,
        0,
        0,
        0,
        0,
        0.1,
        0,
        0,
        0,
        0,
        1
      ],
      "children": [
        5
      ]
    },
    {
      "name": "Scene_1",
      "children": [
        6
      ]
    },
    {
      "name": "Location_2",
      "mesh": 3
    },
    {
      "matrix": [
        0.1,
        0,
        0,
        0,
        0,
        0.1,
        0,
        0,
        0,
        0,
        0.1,
        0,
        0,
        0,
        0,
        1
      ],
      "children": [
        8
      ]
    },
    {
      "name": "Scene_2",
      "children": [
        9
      ]
    },
    {
      "children": [
        4,
        7,
        10
      ]
    },
    {
      "matrix": [
        1.5144583688481086,
        -0.27235030590066084,
        1.0677239403554674e-17,
        0,
        0.266278849448911,
        1.4806968204480007,
        -0.323096487677605,
        0,
        0.057186217398493645,
        0.3179954038807117,
        1.5044492346864526,
        0,
        45.7672020189615,
        150.24032009628687,
        51.49757931306541,
        1
      ],
      "name": "object (7)",
      "children": [
        11
      ]
    },
    {
      "matrix": [
        0.5883484054145521,
        0.39223227027636803,
        -0.7071067811865475,
        0,
        -0.554700196225229,
        0.8320502943378437,
        0,
        0,
        0.588348405414552,
        0.392232270276368,
        0.7071067811865476,
        0,
        0,
        0,
        0,
        1
      ],
      "name": "Directional Light",
      "extensions": {
        "KHR_lights_punctual": {
          "light": 0
        }
      }
    },
    {
      "matrix": [
        0.9731392725489372,
        2.7755575615628914e-17,
        -0.23021719358667692,
        0,
        -0.10167068062129281,
        0.8971975673117301,
        -0.4297669111412798,
        0,
        0.20655030603930014,
        0.44162939803631013,
        0.873098187986413,
        0,
        186.64680817678104,
        489.1887571922276,
        888.6715995229525,
        1
      ],
      "camera": 0
    },
    {
      "matrix": [
        1,
        0,
        0,
        0,
        0,
        1,
        0,
        0,
        0,
        0,
        1,
        0,
        0,
        1,
        0,
        1
      ],
      "name": "Default Ambient Light"
    }
  ],
  "bufferViews": [
    {
      "buffer": 0,
      "byteOffset": 0,
      "byteLength": 27648,
      "target": 34962,
      "byteStride": 12
    },
    {
      "buffer": 0,
      "byteOffset": 27648,
      "byteLength": 27648,
      "target": 34962,
      "byteStride": 12
    },
    {
      "buffer": 0,
      "byteOffset": 55296,
      "byteLength": 13824,
      "target": 34963
    },
    {
      "buffer": 0,
      "byteOffset": 69120,
      "byteLength": 33060,
      "target": 34962,
      "byteStride": 12
    },
    {
      "buffer": 0,
      "byteOffset": 102180,
      "byteLength": 33060,
      "target": 34962,
      "byteStride": 12
    },
    {
      "buffer": 0,
      "byteOffset": 135240,
      "byteLength": 22040,
      "target": 34962,
      "byteStride": 8
    },
    {
      "buffer": 0,
      "byteOffset": 157280,
      "byteLength": 52224,
      "target": 34963
    },
    {
      "buffer": 0,
      "byteOffset": 209504,
      "byteLength": 33060,
      "target": 34962,
      "byteStride": 12
    },
    {
      "buffer": 0,
      "byteOffset": 242564,
      "byteLength": 33060,
      "target": 34962,
      "byteStride": 12
    },
    {
      "buffer": 0,
      "byteOffset": 275624,
      "byteLength": 22040,
      "target": 34962,
      "byteStride": 8
    },
    {
      "buffer": 0,
      "byteOffset": 297664,
      "byteLength": 52224,
      "target": 34963
    },
    {
      "buffer": 0,
      "byteOffset": 349888,
      "byteLength": 33060,
      "target": 34962,
      "byteStride": 12
    },
    {
      "buffer": 0,
      "byteOffset": 382948,
      "byteLength": 33060,
      "target": 34962,
      "byteStride": 12
    },
    {
      "buffer": 0,
      "byteOffset": 416008,
      "byteLength": 22040,
      "target": 34962,
      "byteStride": 8
    },
    {
      "buffer": 0,
      "byteOffset": 438048,
      "byteLength": 52224,
      "target": 34963
    }
  ],
  "buffers": [
    {
      "byteLength": 490272,
      "uri": "data:application/octet-stream;base64,"
    }
  ],
  "accessors": [
    {
      "bufferView": 0,
      "componentType": 5126,
      "count": 2304,
      "max": [
        81.05691528320312,
        33.43299865722656,
        81.05691528320312
      ],
      "min": [
        -81.05691528320312,
        -49.82404708862305,
        -81.05691528320312
      ],
      "type": "VEC3"
    },
    {
      "bufferView": 1,
      "componentType": 5126,
      "count": 2304,
      "max": [
        0.9851402640342712,
        1,
        0.9851402640342712
      ],
      "min": [
        -0.9851402640342712,
        -1,
        -0.9851402640342712
      ],
      "type": "VEC3"
    },
    {
      "bufferView": 2,
      "componentType": 5125,
      "count": 3456,
      "max": [
        2303
      ],
      "min": [
        0
      ],
      "type": "SCALAR"
    },
    {
      "bufferView": 3,
      "componentType": 5126,
      "count": 2755,
      "max": [
        328.0196228027344,
        513.73828125,
        62.06298065185547
      ],
      "min": [
        -359.76654052734375,
        -486.2616882324219,
        -62.09010696411133
      ],
      "type": "VEC3"
    },
    {
      "bufferView": 4,
      "componentType": 5126,
      "count": 2755,
      "max": [
        0.999032199382782,
        0.9990320205688477,
        1
      ],
      "min": [
        -0.9989383220672607,
        -0.9990320205688477,
        -1
      ],
      "type": "VEC3"
    },
    {
      "bufferView": 5,
      "componentType": 5126,
      "count": 2755,
      "max": [
        1.0010273456573486,
        1
      ],
      "min": [
        0,
        1
      ],
      "type": "VEC2"
    },
    {
      "bufferView": 6,
      "componentType": 5125,
      "count": 13056,
      "max": [
        2754
      ],
      "min": [
        0
      ],
      "type": "SCALAR"
    },
    {
      "bufferView": 7,
      "componentType": 5126,
      "count": 2755,
      "max": [
        328.0196228027344,
        513.73828125,
        62.06298065185547
      ],
      "min": [
        -359.76654052734375,
        -486.2616882324219,
        -62.09010696411133
      ],
      "type": "VEC3"
    },
    {
      "bufferView": 8,
      "componentType": 5126,
      "count": 2755,
      "max": [
        0.999032199382782,
        0.9990320205688477,
        1
      ],
      "min": [
        -0.9989383220672607,
        -0.9990320205688477,
        -1
      ],
      "type": "VEC3"
    },
    {
      "bufferView": 9,
      "componentType": 5126,
      "count": 2755,
      "max": [
        1.0010273456573486,
        1
      ],
      "min": [
        0,
        1
      ],
      "type": "VEC2"
    },
    {
      "bufferView": 10,
      "componentType": 5125,
      "count": 13056,
      "max": [
        2754
      ],
      "min": [
        0
      ],
      "type": "SCALAR"
    },
    {
      "bufferView": 11,
      "componentType": 5126,
      "count": 2755,
      "max": [
        328.0196228027344,
        513.73828125,
        62.06298065185547
      ],
      "min": [
        -359.76654052734375,
        -486.2616882324219,
        -62.09010696411133
      ],
      "type": "VEC3"
    },
    {
      "bufferView": 12,
      "componentType": 5126,
      "count": 2755,
      "max": [
        0.999032199382782,
        0.9990320205688477,
        1
      ],
      "min": [
        -0.9989383220672607,
        -0.9990320205688477,
        -1
      ],
      "type": "VEC3"
    },
    {
      "bufferView": 13,
      "componentType": 5126,
      "count": 2755,
      "max": [
        1.0010273456573486,
        1
      ],
      "min": [
        0,
        1
      ],
      "type": "VEC2"
    },
    {
      "bufferView": 14,
      "componentType": 5125,
      "count": 13056,
      "max": [
        2754
      ],
      "min": [
        0
      ],
      "type": "SCALAR"
    }
  ],
  "materials": [
    {
      "pbrMetallicRoughness": {
        "baseColorFactor": [
          0.08865558627723595,
          0.08865558627723595,
          0.10461648408208657,
          1
        ],
        "metallicFactor": 0,
        "roughnessFactor": 0.9056426648260791
      },
      "doubleSided": false
    },
    {
      "pbrMetallicRoughness": {
        "baseColorFactor": [
          0.6038273388475408,
          0.0015176349176470587,
          0.0021246888847058823,
          1
        ],
        "metallicFactor": 0,
        "roughnessFactor": 0.995
      },
      "doubleSided": false
    },
    {
      "pbrMetallicRoughness": {
        "baseColorFactor": [
          0.6038273388475408,
          0.0015176349176470587,
          0.0021246888847058823,
          1
        ],
        "metallicFactor": 0,
        "roughnessFactor": 0.995
      },
      "doubleSided": false
    },
    {
      "pbrMetallicRoughness": {
        "baseColorFactor": [
          0.6038273388475408,
          0.0015176349176470587,
          0.0021246888847058823,
          1
        ],
        "metallicFactor": 0,
        "roughnessFactor": 0.995
      },
      "doubleSided": false
    }
  ],
  "meshes": [
    {
      "primitives": [
        {
          "mode": 4,
          "attributes": {
            "POSITION": 0,
            "NORMAL": 1
          },
          "extras": {
            "type": "SubdivGeometry",
            "parameters": {
              "width": 182.1604461669922,
              "height": 90.88534545898438,
              "depth": 182.1604461669922
            }
          },
          "indices": 2,
          "material": 0
        }
      ]
    },
    {
      "primitives": [
        {
          "mode": 4,
          "attributes": {
            "POSITION": 3,
            "NORMAL": 4,
            "TEXCOORD_0": 5
          },
          "extras": {
            "parameters": {
              "width": 687.7861550040867,
              "height": 999.9999999999999,
              "depth": 124.15308463772209,
              "subdivisions": 0
            },
            "type": "NonParametricGeometry"
          },
          "indices": 6,
          "material": 1
        }
      ]
    },
    {
      "primitives": [
        {
          "mode": 4,
          "attributes": {
            "POSITION": 7,
            "NORMAL": 8,
            "TEXCOORD_0": 9
          },
          "extras": {
            "parameters": {
              "width": 687.7861550040867,
              "height": 999.9999999999999,
              "depth": 124.15308463772209,
              "subdivisions": 0
            },
            "type": "NonParametricGeometry"
          },
          "indices": 10,
          "material": 2
        }
      ]
    },
    {
      "primitives": [
        {
          "mode": 4,
          "attributes": {
            "POSITION": 11,
            "NORMAL": 12,
            "TEXCOORD_0": 13
          },
          "extras": {
            "parameters": {
              "width": 687.7861550040867,
              "height": 999.9999999999999,
              "depth": 124.15308463772209,
              "subdivisions": 0
            },
            "type": "NonParametricGeometry"
          },
          "indices": 14,
          "material": 3
        }
      ]
    }
  ],
  "extensions": {
    "KHR_lights_punctual": {
      "lights": [
        {
          "name": "Directional Light",
          "color": [
            1,
            1,
            1
          ],
          "intensity": 0.7,
          "type": "directional"
        }
      ]
    }
  },
  "cameras": [
    {
      "type": "orthographic",
      "orthographic": {
        "xmag": 2.8030946336522162,
        "ymag": 1.3314699509848027,
        "zfar": 100000,
        "znear": 0
      }
    }
  ],
  "extensionsUsed": [
    "KHR_lights_punctual"
  ]
}