{
  "asset": {
    "version": "2.0",
    "generator": "THREE.GLTFExporter"
  },
  "scenes": [
    {
      "name": "AuxScene",
      "nodes": [
        7
      ]
    }
  ],
  "scene": 0,
  "nodes": [
    {
      "name": "Cube013",
      "mesh": 0
    },
    {
      "name": "Cube013_1",
      "mesh": 1
    },
    {
      "name": "Cube013_2",
      "mesh": 2
    },
    {
      "name": "thumnb_up",
      "extras": {
        "name": "thumnb up"
      },
      "children": [
        0,
        1,
        2
      ]
    },
    {
      "children": [
        3
      ]
    },
    {
      "matrix": [
        0.8595140656103033,
        -0.06822479773982784,
        0.5065381999330424,
        0,
        0.3325097935039907,
        0.8272966615536266,
        -0.4527885499945396,
        0,
        -0.38816595451170205,
        0.5576070397292199,
        0.7337585304461103,
        0,
        0,
        0,
        0,
        1
      ],
      "name": "Scene",
      "children": [
        4
      ]
    },
    {
      "matrix": [
        1.9331495382193011,
        0,
        0,
        0,
        0,
        3.068470105727892,
        0,
        0,
        0,
        0,
        1.7409831928615866,
        0,
        0,
        0,
        -0.6305647939647956,
        1
      ],
      "name": "geometry",
      "mesh": 3
    },
    {
      "children": [
        5,
        6
      ]
    }
  ],
  "bufferViews": [
    {
      "buffer": 0,
      "byteOffset": 0,
      "byteLength": 234816,
      "target": 34962,
      "byteStride": 12
    },
    {
      "buffer": 0,
      "byteOffset": 234816,
      "byteLength": 234816,
      "target": 34962,
      "byteStride": 12
    },
    {
      "buffer": 0,
      "byteOffset": 469632,
      "byteLength": 156544,
      "target": 34962,
      "byteStride": 8
    },
    {
      "buffer": 0,
      "byteOffset": 626176,
      "byteLength": 423936,
      "target": 34963
    },
    {
      "buffer": 0,
      "byteOffset": 1050112,
      "byteLength": 116748,
      "target": 34962,
      "byteStride": 12
    },
    {
      "buffer": 0,
      "byteOffset": 1166860,
      "byteLength": 116748,
      "target": 34962,
      "byteStride": 12
    },
    {
      "buffer": 0,
      "byteOffset": 1283608,
      "byteLength": 77832,
      "target": 34962,
      "byteStride": 8
    },
    {
      "buffer": 0,
      "byteOffset": 1361440,
      "byteLength": 231936,
      "target": 34963
    },
    {
      "buffer": 0,
      "byteOffset": 1593376,
      "byteLength": 5292,
      "target": 34962,
      "byteStride": 12
    },
    {
      "buffer": 0,
      "byteOffset": 1598668,
      "byteLength": 5292,
      "target": 34962,
      "byteStride": 12
    },
    {
      "buffer": 0,
      "byteOffset": 1603960,
      "byteLength": 3528,
      "target": 34962,
      "byteStride": 8
    },
    {
      "buffer": 0,
      "byteOffset": 1607488,
      "byteLength": 9216,
      "target": 34963
    },
    {
      "buffer": 0,
      "byteOffset": 1616704,
      "byteLength": 3960,
      "target": 34962,
      "byteStride": 12
    },
    {
      "buffer": 0,
      "byteOffset": 1620664,
      "byteLength": 3960,
      "target": 34962,
      "byteStride": 12
    },
    {
      "buffer": 0,
      "byteOffset": 1624624,
      "byteLength": 2640,
      "target": 34962,
      "byteStride": 8
    },
    {
      "buffer": 0,
      "byteOffset": 1627264,
      "byteLength": 1932,
      "target": 34963
    }
  ],
  "buffers": [
    {
      "byteLength": 1629196,
      "uri": "data:application/octet-stream;base64,"
    }
  ],
  "accessors": [
    {
      "bufferView": 0,
      "componentType": 5126,
      "count": 19568,
      "max": [
        0.9714301228523254,
        0.9187091588973999,
        0.5096834897994995
      ],
      "min": [
        -0.47440916299819946,
        -0.8898870944976807,
        -0.45130226016044617
      ],
      "type": "VEC3"
    },
    {
      "bufferView": 1,
      "componentType": 5126,
      "count": 19568,
      "max": [
        0.9999512434005737,
        1,
        0.9999512434005737
      ],
      "min": [
        -0.9999980926513672,
        -0.9999961853027344,
        -0.9999980926513672
      ],
      "type": "VEC3"
    },
    {
      "bufferView": 2,
      "componentType": 5126,
      "count": 19568,
      "max": [
        0.8749353289604187,
        0.7731581330299377
      ],
      "min": [
        0.125,
        -2.384185791015625e-7
      ],
      "type": "VEC2"
    },
    {
      "bufferView": 3,
      "componentType": 5125,
      "count": 105984,
      "max": [
        19567
      ],
      "min": [
        0
      ],
      "type": "SCALAR"
    },
    {
      "bufferView": 4,
      "componentType": 5126,
      "count": 9729,
      "max": [
        -0.30854713916778564,
        0.22320163249969482,
        0.5876513719558716
      ],
      "min": [
        -0.907005250453949,
        -0.8893070220947266,
        -0.25717076659202576
      ],
      "type": "VEC3"
    },
    {
      "bufferView": 5,
      "componentType": 5126,
      "count": 9729,
      "max": [
        1,
        1,
        1
      ],
      "min": [
        -0.9999980926513672,
        -1,
        -1
      ],
      "type": "VEC3"
    },
    {
      "bufferView": 6,
      "componentType": 5126,
      "count": 9729,
      "max": [
        0,
        1
      ],
      "min": [
        0,
        1
      ],
      "type": "VEC2"
    },
    {
      "bufferView": 7,
      "componentType": 5125,
      "count": 57984,
      "max": [
        9728
      ],
      "min": [
        0
      ],
      "type": "SCALAR"
    },
    {
      "bufferView": 8,
      "componentType": 5126,
      "count": 441,
      "max": [
        -0.4640344977378845,
        -0.5597904920578003,
        0.587196409702301
      ],
      "min": [
        -0.6862648129463196,
        -0.7653362154960632,
        0.438920795917511
      ],
      "type": "VEC3"
    },
    {
      "bufferView": 9,
      "componentType": 5126,
      "count": 441,
      "max": [
        1,
        0.9928045868873596,
        0.998989462852478
      ],
      "min": [
        -1,
        -0.9928045868873596,
        -0.9989895224571228
      ],
      "type": "VEC3"
    },
    {
      "bufferView": 10,
      "componentType": 5126,
      "count": 441,
      "max": [
        0.8749391436576843,
        1
      ],
      "min": [
        0.1250000149011612,
        -2.384185791015625e-7
      ],
      "type": "VEC2"
    },
    {
      "bufferView": 11,
      "componentType": 5125,
      "count": 2304,
      "max": [
        440
      ],
      "min": [
        0
      ],
      "type": "SCALAR"
    },
    {
      "bufferView": 12,
      "componentType": 5126,
      "count": 330,
      "max": [
        1.8859999179840088,
        0.5075346827507019,
        0
      ],
      "min": [
        -1.8859999179840088,
        -0.5075346827507019,
        0
      ],
      "type": "VEC3"
    },
    {
      "bufferView": 13,
      "componentType": 5126,
      "count": 330,
      "max": [
        0,
        0,
        1
      ],
      "min": [
        0,
        0,
        1
      ],
      "type": "VEC3"
    },
    {
      "bufferView": 14,
      "componentType": 5126,
      "count": 330,
      "max": [
        377.29998779296875,
        100.0999984741211
      ],
      "min": [
        0.10000000149011612,
        -1.4069443941116333
      ],
      "type": "VEC2"
    },
    {
      "bufferView": 15,
      "componentType": 5123,
      "count": 966,
      "max": [
        329
      ],
      "min": [
        0
      ],
      "type": "SCALAR"
    }
  ],
  "materials": [
    {
      "pbrMetallicRoughness": {
        "baseColorFactor": [
          1,
          0.3686274509803922,
          0,
          1
        ],
        "metallicFactor": 0.5,
        "roughnessFactor": 0.5
      },
      "doubleSided": true,
      "extensions": {
        "KHR_materials_clearcoat": {
          "clearcoatFactor": 0,
          "clearcoatRoughnessFactor": 0
        }
      }
    },
    {
      "pbrMetallicRoughness": {
        "baseColorFactor": [
          0.11764705882352941,
          0,
          1,
          1
        ],
        "metallicFactor": 0.5,
        "roughnessFactor": 0.5
      },
      "doubleSided": true,
      "extensions": {
        "KHR_materials_clearcoat": {
          "clearcoatFactor": 0,
          "clearcoatRoughnessFactor": 0
        }
      }
    },
    {
      "pbrMetallicRoughness": {
        "metallicFactor": 0.5,
        "roughnessFactor": 0.5
      },
      "doubleSided": true,
      "extensions": {
        "KHR_materials_clearcoat": {
          "clearcoatFactor": 0,
          "clearcoatRoughnessFactor": 0
        }
      }
    },
    {
      "pbrMetallicRoughness": {
        "metallicFactor": 0,
        "roughnessFactor": 1
      },
      "doubleSided": true,
      "extensions": {
        "KHR_materials_clearcoat": {
          "clearcoatFactor": 0,
          "clearcoatRoughnessFactor": 0
        }
      }
    }
  ],
  "meshes": [
    {
      "primitives": [
        {
          "mode": 4,
          "attributes": {
            "POSITION": 0,
            "NORMAL": 1,
            "TEXCOORD_0": 2
          },
          "indices": 3,
          "material": 0
        }
      ]
    },
    {
      "primitives": [
        {
          "mode": 4,
          "attributes": {
            "POSITION": 4,
            "NORMAL": 5,
            "TEXCOORD_0": 6
          },
          "indices": 7,
          "material": 1
        }
      ]
    },
    {
      "primitives": [
        {
          "mode": 4,
          "attributes": {
            "POSITION": 8,
            "NORMAL": 9,
            "TEXCOORD_0": 10
          },
          "indices": 11,
          "material": 2
        }
      ]
    },
    {
      "primitives": [
        {
          "mode": 4,
          "attributes": {
            "POSITION": 12,
            "NORMAL": 13,
            "TEXCOORD_0": 14
          },
          "indices": 15,
          "material": 3
        }
      ]
    }
  ],
  "extensionsUsed": [
    "KHR_materials_clearcoat"
  ]
}